<?xml version="1.0" encoding="utf-8"?>
<!-- Generator: Adobe Illustrator 17.1.0, SVG Export Plug-In . SVG Version: 6.00 Build 0)  -->
<!DOCTYPE svg PUBLIC "-//W3C//DTD SVG 1.1//EN" "http://www.w3.org/Graphics/SVG/1.1/DTD/svg11.dtd">
<svg version="1.1" id="Layer_1" xmlns="http://www.w3.org/2000/svg" xmlns:xlink="http://www.w3.org/1999/xlink" x="0px" y="0px"
	 viewBox="0 0 306.15 105" enable-background="new 0 0 306.15 105" xml:space="preserve">
<g>
	<polygon fill="#DD1F5C" points="108,0 108,105 76.2,105 66.6,61.2 57.15,105 23.7,105 0,0 31.5,0 40.2,40.35 49.35,0 84,0 
		93,40.35 101.85,0 	"/>
	<path fill="#A8CF38" d="M173.83,4.54h-0.01C166.77,1.6,158.83,0,150.3,0h-16.95l-23.7,105h40.65c17.36,0,32.28-6.63,42.22-17.65
		L173.83,4.54z M150.3,69h-3.9V36h3.9c10.95,0,16.2,6,16.2,16.5S161.25,69,150.3,69z"/>
	<polygon fill="#F69120" points="133.35,0 109.65,105 108,105 108,0 	"/>
	<path fill="#18AAB9" d="M306.15,0l-23.7,105H249l-9.6-43.8l-9.45,43.8H196.5l-3.98-17.65c8.18-9.07,12.98-21.1,12.98-34.85
		c0-22.24-12.57-40-31.67-47.96h-0.01L172.8,0h31.5l8.7,40.35L222.15,0h34.65l9,40.35L274.65,0H306.15z"/>
	<path fill="#392858" d="M205.5,52.5c0,13.75-4.8,25.78-12.98,34.85L173.83,4.54C192.93,12.5,205.5,30.26,205.5,52.5z"/>
</g>
</svg>
